<svg width="100" height="100" viewBox="0 0 100 100" fill="none" xmlns="http://www.w3.org/2000/svg">
<path fill-rule="evenodd" clip-rule="evenodd" d="M50 100C77.6142 100 100 77.6142 100 50C100 22.3858 77.6142 0 50 0C22.3858 0 0 22.3858 0 50C0 77.6142 22.3858 100 50 100ZM67.8993 32.6256C71.7378 32.9724 73.9003 35.3205 74.3744 39.064C74.706 41.6756 75 45.4164 75 49.4386C75 56.5026 74.3744 60.5867 74.3744 60.5867C73.7856 64.3149 71.9833 66.3395 68.1932 66.7679C63.9586 67.2465 54.4345 67.4669 50.2025 67.4669C45.8227 67.4669 36.9645 67.2832 32.5426 66.9149C28.7417 66.5985 26.1481 64.4754 25.6256 60.6969C25.2456 57.9455 25 54.6752 25 49.4754C25 43.6867 25.2088 41.2373 25.6991 38.6222C26.399 34.8903 28.1798 33.0826 32.2477 32.6623C36.5164 32.2205 40.5503 32 49.577 32C53.99 32 63.5042 32.2285 67.8993 32.6256ZM44.6836 42.3872V56.7607L58.3698 49.5004L44.6836 42.3872Z" fill="black"/>
</svg>
